<svg width="94.71304626464844px" height="88.03478240966797px" xmlns="http://www.w3.org/2000/svg" viewBox="202.6434768676758 30.982608795166016 94.71304626464844 88.03478240966797" style="background: rgb(230, 230, 203);" preserveAspectRatio="xMidYMid"><defs><filter id="editing-hole" x="-100%" y="-100%" width="300%" height="300%"><feFlood flood-color="#070707" result="black"></feFlood><feMorphology operator="dilate" radius="50" in="SourceGraphic" result="erode"></feMorphology><feGaussianBlur in="erode" stdDeviation="4" result="blur"></feGaussianBlur><feOffset in="blur" dx="2" dy="2" result="offset"></feOffset><feComposite operator="atop" in="offset" in2="black" result="merge"></feComposite><feComposite operator="in" in="merge" in2="SourceGraphic" result="inner-shadow"></feComposite></filter></defs><g filter="url(#editing-hole)"><g transform="translate(208.21000385284424, 98.52000045776367)"><path d="M34.62-10.75L38.53-10.88L38.91-1.22L38.91-1.22Q29.70 0.96 24.26 0.96L24.26 0.96L24.26 0.96Q13.89 0.96 8.38-5.38L8.38-5.38L8.38-5.38Q2.88-11.71 2.88-22.50L2.88-22.50L2.88-22.50Q2.88-33.28 8.38-39.68L8.38-39.68L8.38-39.68Q13.89-46.08 24.26-46.08L24.26-46.08L24.26-46.08Q29.44-46.08 34.56-44.80L34.56-44.80L34.56-44.80Q37.76-44.03 38.34-43.90L38.34-43.90L37.63-34.43L33.73-34.69L33.73-37.70L33.73-37.70Q33.73-38.72 32.96-40.90L32.96-40.90L32.96-40.90Q28.10-42.37 24.32-42.37L24.32-42.37L24.32-42.37Q17.28-42.37 13.50-36.83L13.50-36.83L13.50-36.83Q9.73-31.30 9.73-22.59L9.73-22.59L9.73-22.59Q9.73-13.89 13.50-8.32L13.50-8.32L13.50-8.32Q17.28-2.75 24.32-2.75L24.32-2.75L24.32-2.75Q28.67-2.75 33.54-4.16L33.54-4.16L33.54-4.16Q34.50-6.91 34.56-7.78L34.56-7.78L34.56-7.78Q34.62-8.64 34.62-9.47L34.62-9.47L34.62-10.75ZM80.32-21.50L80.70-21.12L80.70-21.12Q80.06-14.40 80.06-10.62L80.06-10.62L80.06-1.22L80.06-1.22Q70.85 0.96 65.41 0.96L65.41 0.96L65.41 0.96Q55.04 0.96 49.54-5.38L49.54-5.38L49.54-5.38Q44.03-11.71 44.03-22.50L44.03-22.50L44.03-22.50Q44.03-33.28 49.54-39.68L49.54-39.68L49.54-39.68Q55.04-46.08 65.41-46.08L65.41-46.08L65.41-46.08Q70.59-46.08 75.71-44.80L75.71-44.80L75.71-44.80Q78.91-44.03 79.49-43.90L79.49-43.90L78.78-34.43L75.07-34.82L75.07-37.70L75.07-37.70Q75.07-38.66 74.30-40.83L74.30-40.83L74.30-40.83Q69.12-42.37 65.28-42.37L65.28-42.37L65.28-42.37Q58.11-42.37 54.37-36.86L54.37-36.86L54.37-36.86Q50.62-31.36 50.62-22.59L50.62-22.59L50.62-22.59Q50.62-13.82 54.37-8.29L54.37-8.29L54.37-8.29Q58.11-2.75 65.28-2.75L65.28-2.75L65.28-2.75Q69.38-2.75 74.18-4.03L74.18-4.03L74.18-4.03Q74.94-6.98 74.94-8.19L74.94-8.19L74.94-12.54L74.94-12.54Q74.94-13.50 74.66-15.14L74.66-15.14L74.66-15.14Q74.37-16.77 74.30-17.66L74.30-17.66L68.80-18.18L69.12-21.82L72.26-21.57L72.26-21.57Q74.56-21.31 76.64-21.31L76.64-21.31L76.64-21.31Q78.72-21.31 79.30-21.38L79.30-21.38L80.32-21.50Z" fill="rgba(36.87078015318196%,41.83428165211398%,18.659668268980653%,0.809)"></path></g></g><style>text {
  font-size: 64px;
  font-family: Arial Black;
  dominant-baseline: central;
  text-anchor: middle;
}</style></svg>